<svg width="23" height="19" viewBox="0 0 23 19" fill="none" xmlns="http://www.w3.org/2000/svg">
<path d="M17.3613 0.303305C18.4495 0.303305 19.3398 0.525885 20.0323 0.971045C20.7247 1.4162 21.2936 1.98502 21.7387 2.67749C22.2333 3.51835 22.5796 4.38393 22.7774 5.27425C22.9258 6.21403 23 6.98069 23 7.57424C23 9.99788 22.3817 12.199 21.1452 14.1774C19.9086 16.1559 17.9796 17.7634 15.3581 19L14.6904 17.6645C16.2237 17.0215 17.5592 16.0075 18.6968 14.6226C19.785 13.2377 20.329 11.828 20.329 10.3936C20.329 9.80004 20.2549 9.28068 20.1065 8.83553C19.3151 9.47853 18.4 9.80004 17.3613 9.80004C16.0753 9.80004 14.9624 9.37961 14.0226 8.53875C13.0828 7.69789 12.6129 6.53554 12.6129 5.05167C12.6129 3.66673 13.0828 2.5291 14.0226 1.63878C14.9624 0.748465 16.0753 0.303305 17.3613 0.303305ZM4.74846 0.303305C5.83663 0.303305 6.72695 0.525885 7.41942 0.971045C8.11189 1.4162 8.68071 1.98502 9.12586 2.67749C9.62049 3.51835 9.96672 4.38393 10.1646 5.27425C10.313 6.21403 10.3872 6.98069 10.3872 7.57424C10.3872 9.99788 9.76887 12.199 8.53232 14.1774C7.29577 16.1559 5.36674 17.7634 2.74525 19L2.07751 17.6645C3.61083 17.0215 4.94631 16.0075 6.08394 14.6226C7.17211 13.2377 7.71619 11.828 7.71619 10.3936C7.71619 9.80004 7.642 9.28068 7.49362 8.83553C6.70222 9.47853 5.78717 9.80004 4.74846 9.80004C3.46245 9.80004 2.34955 9.37961 1.40977 8.53875C0.46999 7.69789 9.72748e-05 6.53554 9.72748e-05 5.05167C9.72748e-05 3.66673 0.46999 2.5291 1.40977 1.63878C2.34955 0.748465 3.46245 0.303305 4.74846 0.303305Z" fill="#C0304F"/>
</svg>
