<svg width="24" height="24" viewBox="0 0 24 24" fill="none" xmlns="http://www.w3.org/2000/svg">
<path fill-rule="evenodd" clip-rule="evenodd" d="M15.7158 16.9736H8.49585C8.08185 16.9736 7.74585 16.6376 7.74585 16.2236C7.74585 15.8096 8.08185 15.4736 8.49585 15.4736H15.7158C16.1298 15.4736 16.4658 15.8096 16.4658 16.2236C16.4658 16.6376 16.1298 16.9736 15.7158 16.9736Z" fill="#232526"/>
<path fill-rule="evenodd" clip-rule="evenodd" d="M15.7158 12.7871H8.49585C8.08185 12.7871 7.74585 12.4511 7.74585 12.0371C7.74585 11.6231 8.08185 11.2871 8.49585 11.2871H15.7158C16.1298 11.2871 16.4658 11.6231 16.4658 12.0371C16.4658 12.4511 16.1298 12.7871 15.7158 12.7871Z" fill="#232526"/>
<path fill-rule="evenodd" clip-rule="evenodd" d="M11.2506 8.61035H8.49561C8.08161 8.61035 7.74561 8.27435 7.74561 7.86035C7.74561 7.44635 8.08161 7.11035 8.49561 7.11035H11.2506C11.6646 7.11035 12.0006 7.44635 12.0006 7.86035C12.0006 8.27435 11.6646 8.61035 11.2506 8.61035Z" fill="#232526"/>
<mask id="mask0_381_12485" style="mask-type:luminance" maskUnits="userSpaceOnUse" x="3" y="2" width="19" height="20">
<path fill-rule="evenodd" clip-rule="evenodd" d="M3 2H21.1647V21.9098H3V2Z" fill="white"/>
</mask>
<g mask="url(#mask0_381_12485)">
<path fill-rule="evenodd" clip-rule="evenodd" d="M15.9088 3.5L8.21976 3.504C5.89176 3.518 4.49976 4.958 4.49976 7.357V16.553C4.49976 18.968 5.90476 20.41 8.25576 20.41L15.9448 20.407C18.2728 20.393 19.6648 18.951 19.6648 16.553V7.357C19.6648 4.942 18.2608 3.5 15.9088 3.5ZM8.25676 21.91C5.11276 21.91 2.99976 19.757 2.99976 16.553V7.357C2.99976 4.124 5.04676 2.023 8.21476 2.004L15.9078 2H15.9088C19.0528 2 21.1648 4.153 21.1648 7.357V16.553C21.1648 19.785 19.1178 21.887 15.9498 21.907L8.25676 21.91Z" fill="#232526"/>
</g>
</svg>
