<svg width="19" height="18" viewBox="0 0 19 18" fill="none" xmlns="http://www.w3.org/2000/svg">
<path fill-rule="evenodd" clip-rule="evenodd" d="M2.21875 9.05587C2.21875 5.11368 5.41495 1.91748 9.35714 1.91748C11.2387 1.91748 12.9449 2.65142 14.2182 3.83806C14.3271 3.93964 14.3902 4.08114 14.3928 4.2301C14.3954 4.37906 14.3374 4.52269 14.2321 4.62804L12.3683 6.49182C12.1626 6.69746 11.8323 6.70711 11.615 6.51381C11.0124 5.97769 10.2238 5.65141 9.35714 5.65141C7.47705 5.65141 5.95268 7.17578 5.95268 9.05587C5.95268 10.936 7.47705 12.4603 9.35714 12.4603C10.546 12.4603 11.5917 11.8492 12.1999 10.9228H9.35714C9.05388 10.9228 8.80804 10.677 8.80804 10.3737V7.73802C8.80804 7.43475 9.05388 7.18891 9.35714 7.18891H15.8183C16.0804 7.18891 16.306 7.37418 16.3569 7.63131C16.4466 8.08414 16.4955 8.5785 16.4955 9.05587C16.4955 12.9981 13.2993 16.1943 9.35714 16.1943C5.41495 16.1943 2.21875 12.9981 2.21875 9.05587ZM9.35714 3.01569C6.02147 3.01569 3.31696 5.7202 3.31696 9.05587C3.31696 12.3915 6.02147 15.0961 9.35714 15.0961C12.6928 15.0961 15.3973 12.3915 15.3973 9.05587C15.3973 8.80144 15.3808 8.54048 15.3499 8.28712H9.90625V9.82462H13.0811C13.2594 9.82462 13.4266 9.9112 13.5295 10.0568C13.6324 10.2024 13.6582 10.3889 13.5987 10.557C12.9806 12.3026 11.3189 13.5586 9.35714 13.5586C6.87052 13.5586 4.85446 11.5425 4.85446 9.05587C4.85446 6.56925 6.87052 4.55319 9.35714 4.55319C10.3186 4.55319 11.2074 4.85718 11.9369 5.37005L13.0346 4.27237C12.0152 3.48546 10.7422 3.01569 9.35714 3.01569Z" fill="#C0304F"/>
</svg>
