<svg width="83" height="83" viewBox="0 0 83 83" fill="none" xmlns="http://www.w3.org/2000/svg">
<circle cx="41.5" cy="41.5" r="41" stroke="#DDDDDD" stroke-linejoin="round" stroke-dasharray="3 3"/>
<path d="M40.7837 20.2062C40.5444 20.4456 40.4701 20.7758 40.4701 21.6259V22.2285H39.6529C38.8936 22.2285 38.8275 22.245 38.6294 22.4431C38.3488 22.7237 38.2828 23.0456 38.4396 23.417C38.6047 23.8215 38.9596 23.9618 39.8098 23.9618H40.4701V25.5218V27.0736L35.0142 31.0685C32.018 33.2558 29.5005 35.146 29.4179 35.2616C29.2116 35.5587 29.0795 35.9797 29.0795 36.3428C29.0795 36.739 29.3189 37.2013 30.0453 38.1752C30.7881 39.174 31.0688 39.3473 31.8859 39.2978C32.3151 39.273 32.5132 39.2153 32.7856 39.0419L33.124 38.8191V41.1549V43.4991L32.9424 43.5816C32.8351 43.6312 30.3011 44.795 27.3049 46.1651C24.3087 47.5353 21.7335 48.7486 21.5766 48.8642C21.4281 48.9798 21.23 49.2356 21.1474 49.4337C20.9906 49.7721 20.9906 50.0363 21.0071 55.5169L21.0319 61.2535L21.2877 61.5671C21.4198 61.7405 21.6427 61.9551 21.7665 62.0459L21.9893 62.2192L41.1552 62.244C51.6956 62.2522 60.4448 62.244 60.5934 62.2192C60.9236 62.1614 61.5013 61.6579 61.6582 61.2948C61.7407 61.0802 61.7655 59.9328 61.7655 55.3931C61.7655 50.0693 61.7572 49.7391 61.6086 49.4172C61.5261 49.2274 61.328 48.9798 61.1794 48.8642C61.0226 48.7486 58.3648 47.494 55.2695 46.0743L49.632 43.4991V41.1549V38.8191L49.9705 39.0419C50.2428 39.2153 50.4409 39.273 50.8702 39.2978C51.6873 39.3473 51.9679 39.174 52.7108 38.1752C53.4372 37.2013 53.6765 36.739 53.6765 36.3428C53.6765 35.9797 53.5445 35.5587 53.3381 35.2616C53.2556 35.146 50.7381 33.2558 47.7419 31.0603L42.286 27.0736V25.5218V23.9618H42.9463C43.7965 23.9618 44.1514 23.8215 44.3165 23.417C44.4733 23.0456 44.4073 22.7237 44.1266 22.4431C43.9285 22.245 43.8625 22.2285 43.1031 22.2285H42.286V21.6259C42.286 20.3713 42.0796 19.9999 41.378 19.9999C41.0726 19.9999 40.9406 20.0412 40.7837 20.2062ZM46.5285 32.3562C49.3019 34.3784 51.646 36.1035 51.7286 36.186C51.8854 36.3263 51.8771 36.3428 51.4479 36.9371C51.2003 37.2673 50.994 37.5479 50.9857 37.5644C50.9775 37.581 48.9717 36.1282 46.5285 34.3454C44.0771 32.5543 41.9888 31.0273 41.8733 30.953C41.6174 30.7714 41.1387 30.7714 40.8828 30.953C40.6929 31.085 33.7018 36.186 32.4059 37.1435L31.8034 37.581L31.3411 36.9536C30.978 36.4749 30.8954 36.3098 30.9697 36.2355C31.2173 35.9879 41.2707 28.6749 41.3698 28.6666C41.4276 28.6666 43.7469 30.3257 46.5285 32.3562ZM44.7127 35.1955L47.8987 37.5314V43.3423V49.1531L48.1381 49.3925C48.4765 49.7309 48.947 49.7309 49.3184 49.3925L49.5908 49.1531L49.632 47.3042L49.6733 45.447L54.8321 47.8159L59.9908 50.1766L60.0156 55.3519L60.0321 60.5271H54.8321H49.632V58.3811C49.632 55.9379 49.5908 55.7398 49.1038 55.5335C48.7406 55.3766 48.3774 55.4509 48.1051 55.7233L47.8987 55.9296V58.2243V60.5271H46.38H44.853L44.8282 57.4566C44.8034 54.4934 44.7952 54.3614 44.6136 53.9239C44.2339 52.9912 43.5406 52.2979 42.6161 51.9264C41.9723 51.6706 40.7837 51.6706 40.1399 51.9264C39.2155 52.2979 38.5221 52.9912 38.1425 53.9239C37.9609 54.3614 37.9526 54.4934 37.9278 57.4566L37.9031 60.5271H36.3761H34.8573V49.0293V37.5314L38.0929 35.1625C39.8758 33.8584 41.378 32.8101 41.4276 32.8266C41.4771 32.8431 42.9545 33.9162 44.7127 35.1955ZM33.124 52.9747V60.5271H27.924H22.7239L22.7404 55.3519L22.7652 50.1766L27.924 47.8077C30.7634 46.5036 33.091 45.4305 33.1075 45.4305C33.1157 45.4223 33.124 48.8229 33.124 52.9747ZM42.2364 53.7093C42.4758 53.8496 42.6904 54.0725 42.839 54.3201L43.0701 54.7081L43.0949 57.6135L43.1196 60.5271H41.378H39.6364L39.6612 57.6135L39.686 54.6915L39.9336 54.2954C40.1152 53.9982 40.305 53.8249 40.6352 53.6515C41.1964 53.3626 41.6669 53.3792 42.2364 53.7093Z" fill="#C0304F"/>
<path d="M40.5906 39.3394C39.922 39.5127 39.402 39.8016 38.9398 40.2721C37.5944 41.6092 37.5944 43.7965 38.9315 45.1419C40.9455 47.1477 44.3792 46.0004 44.7836 43.1692C45.0147 41.568 43.983 39.8841 42.5055 39.4384C41.9112 39.2568 41.0776 39.2156 40.5906 39.3394ZM42.1011 41.1635C42.6954 41.4689 43.0585 42.0467 43.0585 42.707C43.0668 43.3591 42.7366 43.8791 42.1176 44.2092C41.5563 44.4981 41.0858 44.4816 40.5163 44.1515C39.2369 43.4003 39.4928 41.5019 40.929 41.048C41.2261 40.9489 41.8039 41.0067 42.1011 41.1635Z" fill="#C0304F"/>
<path d="M53.9655 51.0928C53.2143 51.3652 52.6696 51.9099 52.3972 52.6775C52.2981 52.9664 52.2734 53.4947 52.2734 55.5004V57.9684L52.5127 58.2325L52.7521 58.5049H54.8321H56.9121L57.1515 58.2325L57.3991 57.9601L57.3744 55.3849C57.3496 52.8509 57.3496 52.8014 57.1515 52.4052C56.8956 51.8852 56.4582 51.4477 55.9464 51.2001C55.4099 50.9442 54.5267 50.8947 53.9655 51.0928ZM55.3769 52.9664L55.6575 53.2471V55.0299V56.8128H54.8321H54.0067V55.0299V53.2471L54.2874 52.9664C54.4937 52.7601 54.6423 52.6858 54.8321 52.6858C55.022 52.6858 55.1788 52.7601 55.3769 52.9664Z" fill="#C0304F"/>
<path d="M48.1378 51.9347C47.948 52.1246 47.8984 52.2484 47.8984 52.5208C47.8984 52.7106 47.9397 52.9335 47.981 53.0243C48.0883 53.2059 48.4845 53.4287 48.7238 53.4287C49.2356 53.4287 49.6978 52.8509 49.5905 52.3474C49.4502 51.7201 48.6 51.4808 48.1378 51.9347Z" fill="#C0304F"/>
<path d="M27.1335 51.068C26.3494 51.3239 25.6726 52.0337 25.458 52.8096C25.4002 53.0077 25.3672 54.0807 25.3672 55.5499V57.9684L25.6066 58.2325L25.8459 58.5049H27.9259H30.0059L30.2453 58.2325L30.4847 57.9684V55.4922C30.4847 53.1975 30.4764 52.9912 30.3113 52.5702C30.105 52.009 29.552 51.4147 29.0155 51.1836C28.5367 50.969 27.604 50.9112 27.1335 51.068ZM28.4707 52.9664L28.7513 53.2471V55.0299V56.8128H27.9259H27.1005V55.0299V53.2471L27.3812 52.9664C27.5875 52.7601 27.7361 52.6858 27.9259 52.6858C28.1158 52.6858 28.2726 52.7601 28.4707 52.9664Z" fill="#C0304F"/>
</svg>
