<svg width="83" height="83" viewBox="0 0 83 83" fill="none" xmlns="http://www.w3.org/2000/svg">
<circle cx="41.5" cy="41.5" r="41" stroke="#DDDDDD" stroke-linejoin="round" stroke-dasharray="3 3"/>
<path d="M29.8617 28.5515C29.3994 28.6092 28.8794 28.7 28.6978 28.7496C28.3347 28.8486 27.8972 29.2448 27.7651 29.608C27.7074 29.7648 27.6743 31.4981 27.6743 34.775V39.7109L27.0718 39.8925C26.7416 39.9915 26.2464 40.1731 25.974 40.3052C25.3137 40.6188 24.4718 41.4112 24.1334 42.0385C23.993 42.3109 23.2254 44.102 22.433 46.017C21.0794 49.2691 20.9556 49.5332 20.5346 50.0284C20.287 50.3256 20.0559 50.6557 20.0311 50.763C19.9486 51.1014 20.0394 51.8113 20.1962 52.0589C20.3283 52.257 24.9423 55.6494 25.421 55.9053C25.7346 56.0621 26.4445 56.0208 26.7747 55.8062C26.9397 55.7072 27.5175 55.1459 28.0705 54.5599C28.929 53.6437 29.1601 53.4456 29.7626 53.1154C31.4547 52.1992 32.4617 50.9941 32.9322 49.3103L33.0725 48.7986L33.6915 48.8564C35.2103 48.9884 37.0261 49.4837 38.19 50.0697C38.8503 50.3999 39.6427 50.9199 40.2947 51.4481C41.0376 52.0507 41.2357 52.0342 42.1106 51.3408C42.9113 50.7053 43.5386 50.3173 44.3722 49.9376C45.536 49.4011 47.2034 48.9719 48.557 48.8564L49.1761 48.7986L49.4072 49.5332C49.9107 51.1592 50.8599 52.2488 52.5272 53.1402C53.0967 53.4456 53.3361 53.6519 54.1863 54.5599C54.7393 55.1459 55.3171 55.7072 55.4821 55.8062C55.8123 56.0208 56.5222 56.0621 56.8358 55.9053C57.3145 55.6494 61.9285 52.257 62.0606 52.0589C62.2174 51.8113 62.3082 51.1014 62.2257 50.763C62.2009 50.6557 61.9698 50.3256 61.7222 50.0284C61.3012 49.5332 61.1774 49.2691 59.8238 46.017C59.0314 44.102 58.2637 42.3109 58.1234 42.0385C57.785 41.4112 56.9431 40.6188 56.2828 40.3052C56.0104 40.1731 55.5152 39.9915 55.185 39.8925L54.5825 39.7109V39.1414C54.5825 38.6131 54.5577 38.5471 54.3431 38.3242C54.1532 38.1344 54.0294 38.0849 53.7571 38.0849C53.3278 38.0849 53.1297 38.1922 52.9729 38.4976C52.8656 38.6957 52.8491 39.2157 52.8491 41.6754C52.8491 43.2849 52.8326 44.6055 52.8161 44.6055C52.7913 44.6055 51.9824 44.003 51.0167 43.2684C48.9202 41.6836 48.8789 41.6506 48.2434 41.5433C46.6668 41.2627 45.2967 42.5173 45.4453 44.1103C45.503 44.8036 45.7589 45.2081 46.7742 46.2481L47.6903 47.1973L46.8815 47.3376C45.4618 47.5935 43.9183 48.13 42.7627 48.7821C42.4078 48.9802 42.1024 49.1452 42.0776 49.1452C42.0529 49.1452 42.0363 45.4557 42.0363 40.9407V32.7362L42.4738 32.4143C43.9843 31.2753 45.8249 30.5737 48.0948 30.2765C48.8624 30.1775 49.4485 30.1527 50.6205 30.194C51.4624 30.2188 52.2961 30.2683 52.4777 30.3096L52.8078 30.3673L52.8491 31.0607C52.8986 31.7045 52.9151 31.7623 53.1628 31.9851C53.4682 32.2575 53.7983 32.2905 54.1698 32.1007C54.5329 31.9108 54.5825 31.7458 54.5825 30.7388C54.5825 29.0137 54.2606 28.7413 51.9577 28.5019C50.7443 28.3781 48.1196 28.4524 47.1126 28.634C45.0821 29.0054 43.3075 29.6988 41.8465 30.7058C41.4916 30.9534 41.1697 31.1515 41.1284 31.1515C41.0871 31.1515 40.7652 30.9534 40.4103 30.7058C38.7595 29.575 36.7868 28.8569 34.4591 28.5515C33.3283 28.4029 31.0255 28.4029 29.8617 28.5515ZM34.3518 30.2931C36.5227 30.6067 38.3385 31.3166 39.7912 32.4143L40.2205 32.7362V40.9407C40.2205 45.4557 40.2039 49.1452 40.1792 49.1452C40.1544 49.1452 39.8408 48.9802 39.4941 48.7821C38.3633 48.1383 36.63 47.5357 35.2268 47.3046L34.5747 47.1973L35.4826 46.2481C35.9861 45.7281 36.4814 45.142 36.5887 44.9357C36.8446 44.4404 36.8941 43.7636 36.7125 43.1528C36.5309 42.509 35.8458 41.8074 35.2268 41.6258C34.6655 41.469 33.8896 41.4938 33.4439 41.7001C33.2458 41.7909 32.2718 42.4842 31.2813 43.2354C30.2909 43.9865 29.4655 44.6055 29.4407 44.6055C29.4242 44.6055 29.4077 41.4112 29.4077 37.5071C29.4077 31.9026 29.4324 30.3921 29.515 30.3673C30.0928 30.1527 33.089 30.1032 34.3518 30.2931ZM27.6743 44.1763V46.8011L27.9055 47.024C28.2274 47.3294 28.5905 47.3871 28.9372 47.1808C29.094 47.0982 30.2991 46.1986 31.6198 45.1916C32.9487 44.1846 34.1207 43.3262 34.2363 43.2849C34.4922 43.1858 34.7976 43.2931 34.9709 43.549C35.2433 43.937 35.1607 44.0773 33.9722 45.2989C31.2236 48.1135 31.4794 47.8163 31.3474 48.4354C31.0337 49.9459 30.2166 50.9529 28.6896 51.7122C28.1283 51.9846 27.9055 52.1745 27.014 53.1072L25.9823 54.1885L24.0426 52.777C22.9778 52.0011 22.0534 51.3326 21.9873 51.2995C21.8883 51.2418 21.9295 51.1592 22.1689 50.8703C22.3918 50.598 22.8622 49.5579 24.0508 46.6855C25.7594 42.575 25.8915 42.3274 26.6261 41.9477C26.9562 41.7827 27.4928 41.568 27.6166 41.5598C27.6496 41.5515 27.6743 42.7319 27.6743 44.1763ZM55.4326 41.8652C56.3488 42.2696 56.4231 42.3935 58.206 46.6855C59.3946 49.5579 59.865 50.598 60.0879 50.8703C60.3273 51.1592 60.3685 51.2418 60.2695 51.2995C60.2034 51.3326 59.279 52.0011 58.2142 52.777L56.2745 54.1885L55.2428 53.1072C54.3596 52.1827 54.1202 51.9846 53.592 51.7205C52.0485 50.9529 51.2231 49.9459 50.9094 48.4354C50.7774 47.8163 51.0332 48.1135 48.2846 45.2989C47.0961 44.0773 47.0135 43.937 47.2859 43.549C47.4592 43.2931 47.7646 43.1858 48.0205 43.2849C48.1361 43.3262 49.3164 44.1928 50.637 45.1998C51.9659 46.2068 53.1958 47.1065 53.3609 47.189C53.7405 47.3789 54.0707 47.3211 54.3679 47.024L54.5825 46.8094V44.1763V41.5433L54.7723 41.5928C54.8713 41.6258 55.1685 41.7496 55.4326 41.8652Z" fill="#C0304F"/>
<path d="M34.7187 32.5301C34.6197 32.5466 34.4463 32.6621 34.3308 32.7777C34.1409 32.9675 34.1162 33.0583 34.1162 33.5536V34.1231H33.4889C32.9111 34.1231 32.845 34.1396 32.6222 34.3625C32.4323 34.5523 32.3828 34.6761 32.3828 34.9485C32.3828 35.6088 32.7047 35.8564 33.5796 35.8564H34.1162V37.5568C34.1162 38.5637 34.1492 39.3149 34.1987 39.4139C34.306 39.5955 34.7022 39.8184 34.9416 39.8184C35.247 39.8184 35.6101 39.5707 35.7339 39.2818C35.8165 39.0672 35.8495 38.5968 35.8495 37.4247V35.8564H36.3447C36.972 35.8564 37.3105 35.6913 37.4673 35.3034C37.6324 34.9237 37.5498 34.5936 37.2362 34.3294C37.0298 34.1561 36.9143 34.1231 36.419 34.1231H35.8495V33.7104C35.8495 32.852 35.4203 32.4062 34.7187 32.5301Z" fill="#C0304F"/>
<path d="M47.94 33.7184C46.6523 33.8504 44.5723 34.4035 44.0523 34.7419C43.8377 34.8822 43.6891 35.3197 43.7469 35.6416C43.7717 35.7571 43.8872 35.947 43.9945 36.0625C44.2834 36.3432 44.6796 36.3349 45.5463 36.0213C46.6358 35.6416 47.8574 35.4352 49.3844 35.3857C50.7298 35.3362 50.7463 35.3362 50.9692 35.1051C51.1508 34.9317 51.2003 34.7997 51.2003 34.5355C51.2003 33.7927 50.8867 33.6193 49.533 33.6358C49.0212 33.6441 48.3031 33.6771 47.94 33.7184Z" fill="#C0304F"/>
<path d="M53.1618 34.5275C52.4437 35.1713 53.1948 36.3104 54.0863 35.9389C54.4082 35.8069 54.5815 35.518 54.5815 35.1135C54.5815 34.3624 53.7396 34.0158 53.1618 34.5275Z" fill="#C0304F"/>
<path d="M48.1058 37.0202C47.0575 37.1192 46.1909 37.3008 45.1178 37.6393C44.1604 37.9447 43.7807 38.1923 43.7559 38.5307C43.7146 39.125 43.888 39.4469 44.3172 39.5624C44.5731 39.6367 44.7381 39.6037 45.4562 39.3643C46.8842 38.8939 48.3039 38.671 49.9712 38.6628C50.7223 38.6628 50.7636 38.6545 50.9782 38.4316C51.4487 37.9447 51.1845 37.111 50.5325 36.9789C50.1941 36.9129 49.0467 36.9294 48.1058 37.0202Z" fill="#C0304F"/>
</svg>
