<svg width="59" height="64" viewBox="0 0 59 64" fill="none" xmlns="http://www.w3.org/2000/svg">
<path d="M28.0301 0.450294C27.3287 0.770214 4.15927 17.0245 3.71631 17.5044C3.48252 17.7628 3.21182 18.1934 3.138 18.4641C3.02726 18.821 2.99034 23.3491 2.99034 36.4165V53.8889L2.36281 53.9505C1.58762 54.0243 0.837047 54.5288 0.480215 55.2178C0.246429 55.6608 0.221819 55.9561 0.184906 58.3678C0.160297 60.0658 0.19721 61.2224 0.283342 61.5424C0.443301 62.1576 1.05853 62.8835 1.59993 63.105C2.19055 63.3634 56.2075 63.3634 56.7981 63.105C57.3395 62.8835 57.9547 62.1576 58.1147 61.5424C58.2131 61.2101 58.2377 60.0535 58.2131 58.3063C58.1885 56.0668 58.1393 55.5254 57.967 55.2178C57.5487 54.4549 56.712 53.9258 55.8999 53.9258H55.4077V36.4411C55.4077 23.3491 55.3708 18.821 55.26 18.4641C55.1862 18.1934 54.9155 17.7628 54.6817 17.5044C54.3372 17.123 34.2316 2.97273 30.9709 0.807129C30.331 0.376469 30.1834 0.339554 29.3344 0.302643C28.7314 0.290337 28.2639 0.339554 28.0301 0.450294ZM41.2206 10.3801C47.6435 14.8589 53.0083 18.6487 53.1683 18.821L53.439 19.1163V36.5272V53.9258H52.4546H51.4702V39.1358V24.3457L51.1995 24.0627C50.7197 23.5459 49.8953 23.7428 49.6246 24.4442C49.5384 24.6656 49.5015 29.5628 49.5015 39.3573V53.9258H33.1734H16.8453L16.5623 54.1965C16.2054 54.5288 16.1931 55.144 16.513 55.5377L16.7468 55.833L36.3603 55.87C54.5956 55.8946 55.9737 55.9069 56.1214 56.1037C56.2198 56.2514 56.269 56.9774 56.269 58.6754C56.269 60.9887 56.2567 61.0502 55.9983 61.2347C55.7522 61.407 53.0083 61.4316 29.199 61.4316C5.38973 61.4316 2.64581 61.407 2.39972 61.2347C2.14133 61.0502 2.12902 60.9887 2.12902 58.7123C2.12902 57.3342 2.17824 56.276 2.25207 56.1284C2.37511 55.9069 2.57199 55.8946 7.72759 55.8946C11.4313 55.8946 13.1662 55.8577 13.3754 55.7592C13.9906 55.4762 14.0767 54.4919 13.5353 54.1104C13.3262 53.9628 12.8094 53.9258 11.0867 53.9258H8.89652L8.92113 37.4131L8.95805 20.8881L18.4941 14.2191C23.7358 10.5523 28.067 7.55002 28.1285 7.53771C28.1777 7.53771 28.2147 8.41133 28.2147 9.49414V11.4506L27.6363 11.5367C26.8612 11.6474 25.6184 12.1396 24.7694 12.681C23.2436 13.6285 21.9886 15.2404 21.3856 17.0245C21.0534 18.0089 21.0288 18.2058 20.955 20.9497L20.8811 23.8412L19.5523 27.6556C18.814 29.8089 18.2111 31.7654 18.1741 32.1468C18.1126 32.639 18.1618 33.0081 18.3341 33.5249L18.5802 34.2386H17.1775C15.8486 34.2386 15.7625 34.2509 15.4795 34.5462C15.0734 34.9399 15.0734 35.5059 15.4795 35.8997L15.7748 36.2073H20.3397H24.8924V37.3393C24.8924 38.6928 25.1016 39.2465 25.8399 39.911C26.1106 40.1571 26.3936 40.3785 26.4551 40.4031C26.5289 40.4401 26.4305 41.7074 26.209 43.7746C25.8399 47.0353 25.8399 47.1091 26.0491 47.8228C26.4428 49.1517 27.7594 50.1114 29.199 50.1114C30.6386 50.1114 31.9552 49.1517 32.349 47.8228C32.5582 47.1091 32.5582 47.0353 32.189 43.7746C31.9675 41.7074 31.8691 40.4401 31.9429 40.4031C32.0045 40.3785 32.2875 40.1571 32.5582 39.911C33.2964 39.2465 33.5056 38.6928 33.5056 37.3393V36.2073H38.0583H42.6233L42.9186 35.8997C43.3246 35.5059 43.3246 34.9399 42.9186 34.5462C42.6356 34.2509 42.5494 34.2386 41.2206 34.2386H39.8178L40.0639 33.5249C40.2362 33.0081 40.2854 32.639 40.2239 32.1468C40.187 31.7531 39.5964 29.8212 38.8458 27.6556L37.5169 23.8412L37.4431 20.9497C37.3692 18.2058 37.3446 18.0089 37.0124 17.0245C36.6063 15.831 35.7696 14.4898 34.9083 13.6777C33.7763 12.5949 32.1152 11.7336 30.7617 11.5367L30.1834 11.4506V9.43261V7.42697L40.0024 14.2929C45.4041 18.0704 49.9445 21.2327 50.0921 21.3065C50.4736 21.5034 50.7812 21.4788 51.1503 21.1835C51.3964 20.9989 51.4702 20.8266 51.4702 20.4821C51.4702 20.236 51.421 19.9653 51.3718 19.8792C51.3226 19.793 46.4008 16.3232 40.4577 12.1642C31.1431 5.64281 29.5682 4.58462 29.199 4.58462C28.8299 4.58462 27.2426 5.65512 17.9404 12.1519C11.9973 16.3232 7.07545 19.793 7.02623 19.8792C6.97701 19.953 6.9278 27.6556 6.9278 36.9702V53.9258H5.94343H4.95907V36.5395C4.95907 22.4262 4.98368 19.104 5.11903 18.9317C5.20516 18.8087 10.5699 15.0066 17.0298 10.4908C26.4797 3.87096 28.8422 2.25906 29.1621 2.25906C29.4943 2.24676 31.4384 3.56335 41.2206 10.3801ZM30.4418 13.4931C32.8042 13.9976 34.7238 15.8925 35.2898 18.2673C35.4128 18.8087 35.4743 19.7684 35.4743 21.4788V23.9028L36.3357 26.4252L37.1847 28.9476H29.199H21.2134L22.0624 26.4252L22.9237 23.9028V21.4788C22.9237 19.7684 22.9852 18.8087 23.1083 18.2673C23.662 15.9171 25.5815 14.0099 27.8947 13.5054C28.8791 13.2839 29.4574 13.2839 30.4418 13.4931ZM38.1075 31.6054C38.3659 32.4421 38.2921 32.9712 37.8491 33.5126C37.2216 34.2509 37.4184 34.2386 29.199 34.2386C20.9796 34.2386 21.1765 34.2509 20.5489 33.5126C20.106 32.9712 20.0321 32.4421 20.2905 31.6054L20.512 30.9163H29.199H37.886L38.1075 31.6054ZM31.5369 37.1547C31.5369 37.9545 31.5 38.1391 31.2662 38.3852C31.0078 38.6559 30.9217 38.6682 29.2113 38.6682C27.5502 38.6682 27.4149 38.6559 27.1442 38.3975C26.8981 38.1637 26.8612 38.0161 26.8612 37.1671V36.2073H29.199H31.5369V37.1547ZM29.8758 40.9076C29.9004 41.0676 30.0726 42.4826 30.2572 44.0576C30.614 47.2568 30.5894 47.4783 29.8881 47.9089C29.4082 48.2042 28.9898 48.2042 28.51 47.9089C27.8086 47.4783 27.784 47.2568 28.1408 44.0576C28.3254 42.4826 28.4977 41.0676 28.5223 40.9076C28.5838 40.6738 28.6699 40.6369 29.199 40.6369C29.7281 40.6369 29.8142 40.6738 29.8758 40.9076Z" fill="#C0304F"/>
</svg>
