<svg width="100" height="100" viewBox="0 0 100 100" fill="none" xmlns="http://www.w3.org/2000/svg">
<circle cx="50" cy="50" r="50" fill="#FCFCFC"/>
<path fill-rule="evenodd" clip-rule="evenodd" d="M49.5 62.1668C49.5 62.1668 49.5 41.7502 49.5 41.7502C49.5 41.7502 46.5833 38.8335 43.6666 38.8335C40.75 38.8335 36.375 41.7502 36.375 41.7502C36.375 41.7502 36.375 62.1668 36.375 62.1668C36.375 62.1668 40.75 59.2502 43.6666 59.2502C46.5833 59.2502 49.5 62.1668 49.5 62.1668Z" stroke="#C0304F" stroke-width="2" stroke-linecap="round" stroke-linejoin="round"/>
<path fill-rule="evenodd" clip-rule="evenodd" d="M49.5 62.1668C49.5 62.1668 49.5 41.7502 49.5 41.7502C49.5 41.7502 52.4167 38.8335 55.3334 38.8335C58.25 38.8335 62.625 41.7502 62.625 41.7502C62.625 41.7502 62.625 62.1668 62.625 62.1668C62.625 62.1668 58.25 59.2502 55.3334 59.2502C52.4167 59.2502 49.5 62.1668 49.5 62.1668Z" stroke="#C0304F" stroke-width="2" stroke-linecap="round" stroke-linejoin="round"/>
</svg>
