<svg width="100" height="100" viewBox="0 0 100 100" fill="none" xmlns="http://www.w3.org/2000/svg">
<circle cx="50" cy="50" r="50" fill="#FCFCFC"/>
<path d="M50.5979 41.6396C49.8005 42.1674 49.0322 42.7794 48.3225 43.4891C47.277 44.5346 47.3051 44.5913 46.3701 45.6615M50.5979 41.6396C55.5932 38.3331 61.7281 38.3331 61.7281 38.3331C61.7281 38.3331 61.7281 44.4679 58.4216 49.4633M50.5979 41.6396L58.4216 49.4633M58.4216 49.4633C57.8938 50.2606 57.2818 51.029 56.5721 51.7386C55.5266 52.7842 55.4698 52.7561 54.3997 53.691M40.9184 52.5841C40.3752 53.3476 40.0729 53.801 40.0729 53.801L46.2601 59.9882C46.2601 59.9882 46.7135 59.686 47.4771 59.1428M40.9184 52.5841L35.9482 47.6139L44.1977 43.4891L46.3701 45.6615M40.9184 52.5841C41.9748 51.0988 43.9426 48.4401 46.3701 45.6615M47.4771 59.1428L52.4473 64.113L56.5721 55.8634L54.3997 53.691M47.4771 59.1428C48.9623 58.0864 51.6211 56.1186 54.3997 53.691" stroke="#C0304F" stroke-width="2"/>
<path d="M39.292 60.7084C39.8028 58.6412 40.7502 57.7919 41.4795 58.521C42.2087 59.2501 41.3592 60.1976 39.292 60.7084Z" stroke="#C0304F"/>
</svg>
