<svg width="62" height="51" viewBox="0 0 62 51" fill="none" xmlns="http://www.w3.org/2000/svg">
<path d="M15.1193 50.1323C12.2015 50.1323 9.81425 49.5355 7.9575 48.3418C6.10075 47.1482 4.57556 45.623 3.38194 43.7663C2.05569 41.5116 1.12731 39.1907 0.59681 36.8035C0.198935 34.2836 0 32.2279 0 30.6364C0 24.1378 1.65781 18.236 4.97344 12.931C8.28906 7.62595 13.4614 3.31563 20.4906 0L22.281 3.58087C18.1696 5.305 14.5888 8.02382 11.5384 11.7373C8.62063 15.4508 7.16175 19.2306 7.16175 23.0768C7.16175 24.6683 7.36069 26.0608 7.75857 27.2545C9.88057 25.5303 12.3341 24.6683 15.1193 24.6683C18.5675 24.6683 21.5516 25.7956 24.0714 28.0502C26.5913 30.3048 27.8513 33.4215 27.8513 37.4003C27.8513 41.1138 26.5913 44.1641 24.0714 46.5514C21.5516 48.9386 18.5675 50.1323 15.1193 50.1323ZM48.9387 50.1323C46.0209 50.1323 43.6336 49.5355 41.7769 48.3418C39.9201 47.1482 38.395 45.623 37.2013 43.7663C35.8751 41.5116 34.9467 39.1907 34.4162 36.8035C34.0183 34.2836 33.8194 32.2279 33.8194 30.6364C33.8194 24.1378 35.4772 18.236 38.7928 12.931C42.1085 7.62595 47.2808 3.31563 54.31 0L56.1004 3.58087C51.989 5.305 48.4082 8.02382 45.3578 11.7373C42.44 15.4508 40.9811 19.2306 40.9811 23.0768C40.9811 24.6683 41.1801 26.0608 41.578 27.2545C43.7 25.5303 46.1535 24.6683 48.9387 24.6683C52.3869 24.6683 55.371 25.7956 57.8908 28.0502C60.4107 30.3048 61.6707 33.4215 61.6707 37.4003C61.6707 41.1138 60.4107 44.1641 57.8908 46.5514C55.371 48.9386 52.3869 50.1323 48.9387 50.1323Z" fill="#C0304F"/>
</svg>
